FFmpeg version SVN-r25716, Copyright (c) 2000-2010 the FFmpeg developers  built on Nov 10 2010 12:23:18 with gcc 4.1.2 20080704 (Red Hat 4.1.2-48)  configuration: --enable-libmp3lame --enable-shared --disable-mmx --arch=x86_64  libavutil     50.33. 0 / 50.33. 0  libavcore      0.12. 1 /  0.12. 1  libavcodec    52.94. 4 / 52.94. 4  libavformat   52.84. 0 / 52.84. 0  libavdevice   52. 2. 2 / 52. 2. 2  libavfilter    1.59. 0 /  1.59. 0  libswscale     0.12. 0 /  0.12. 0Seems stream 0 codec frame rate differs from container frame rate: 1200.00 (1200/1) -> 20.00 (20/1)Input #0, mov,mp4,m4a,3gp,3g2,mj2, from '/RAID10/data/converted_video_files/7602.mov':  Metadata:    major_brand     : qt      minor_version   : 537199360    compatible_brands: qt    Duration: 00:00:34.90, start: 0.000000, bitrate: 1080 kb/s    Stream #0.0(eng): Video: h264, yuv420p, 328x392, 1077 kb/s, 20 fps, 20 tbr, 600 tbn, 1200 tbc[buffer @ 0x23a77f0] w:328 h:392 pixfmt:yuv420pOutput #0, flv, to '/RAID10/data/converted_video_files/7602.flv':  Metadata:    encoder         : Lavf52.84.0    Stream #0.0(eng): Video: flv, yuv420p, 328x392, q=2-31, 600 kb/s, 1k tbn, 24 tbcStream mapping:  Stream #0.0 -> #0.0Press [q] to stop encodingframe=   56 fps=  0 q=5.5 size=     294kB time=2.79 bitrate= 863.1kbits/s    frame=  115 fps=114 q=5.6 size=     514kB time=5.75 bitrate= 732.2kbits/s    frame=  175 fps=116 q=5.7 size=     731kB time=8.75 bitrate= 684.5kbits/s    frame=  235 fps=117 q=5.5 size=     946kB time=11.75 bitrate= 659.5kbits/s    frame=  295 fps=117 q=5.3 size=    1163kB time=14.75 bitrate= 645.9kbits/s    frame=  356 fps=118 q=5.5 size=    1384kB time=17.79 bitrate= 637.5kbits/s    frame=  417 fps=119 q=5.6 size=    1608kB time=20.83 bitrate= 632.4kbits/s    frame=  480 fps=119 q=5.4 size=    1840kB time=24.00 bitrate= 628.1kbits/s    frame=  544 fps=120 q=5.5 size=    2082kB time=27.21 bitrate= 626.9kbits/s    frame=  609 fps=121 q=5.4 size=    2315kB time=30.46 bitrate= 622.7kbits/s    frame=  674 fps=122 q=5.4 size=    2561kB time=33.71 bitrate= 622.3kbits/s    frame=  698 fps=122 q=5.6 Lsize=    2648kB time=34.87 bitrate= 622.1kbits/s    video:2637kB audio:0kB global headers:0kB muxing overhead 0.421327%